<?xml version="1.0" encoding="UTF-8"?>
<svg version="1.1" xmlns="http://www.w3.org/2000/svg" width="512" height="512">
<path d="M0 0 C168.96 0 337.92 0 512 0 C512 168.96 512 337.92 512 512 C343.04 512 174.08 512 0 512 C0 343.04 0 174.08 0 0 Z " fill="#663E29" transform="translate(0,0)"/>
<path d="M0 0 C1.29640411 -0.00671722 2.59280823 -0.01343445 3.92849731 -0.02035522 C7.44131532 -0.03780728 10.95403553 -0.04270172 14.46689272 -0.0439868 C16.67457718 -0.04542111 18.88223777 -0.04971455 21.08991623 -0.05498123 C28.82884005 -0.07341419 36.56769558 -0.08166053 44.30664062 -0.08007812 C51.46052215 -0.07887921 58.6141008 -0.0999497 65.76790583 -0.13156545 C71.95954635 -0.15792983 78.15108919 -0.16843705 84.34278524 -0.16716731 C88.0187389 -0.16666346 91.69442288 -0.17201927 95.37031937 -0.19352341 C125.55802098 -0.35754425 150.7730969 2.57232771 173.49365234 24.16552734 C185.82115 37.14447813 192.74389825 52.94993785 196.24365234 70.29052734 C196.42001598 71.06453919 196.59637962 71.83855104 196.77808762 72.6360178 C197.28682454 75.53668218 197.37554248 78.24354947 197.38409424 81.1884613 C197.38980438 82.36991226 197.39551453 83.55136322 197.40139771 84.76861572 C197.40251556 86.05644958 197.40363342 87.34428345 197.40478516 88.67114258 C197.40941731 90.04816317 197.4144425 91.42518248 197.41983032 92.80220032 C197.43292455 96.53826182 197.43939433 100.27430537 197.44384098 104.01038623 C197.44677861 106.35013298 197.45088487 108.68987491 197.45534515 111.02961922 C197.46901687 118.36591106 197.47868317 125.70219178 197.48254704 133.03849548 C197.48701672 141.47666168 197.50451505 149.914665 197.53354764 158.35278171 C197.55526053 164.89317792 197.56525654 171.43352864 197.56658816 177.97396046 C197.56763003 181.8711414 197.57340375 185.76816918 197.59140778 189.66531181 C197.60805384 193.34011543 197.60996516 197.01465354 197.60126877 200.68948174 C197.60014786 202.65723501 197.6137398 204.62498012 197.62802124 206.59268188 C197.57559894 217.95253796 195.38781079 228.61911192 191.74365234 239.35302734 C191.34146484 240.56087891 190.93927734 241.76873047 190.52490234 243.01318359 C189.34055036 246.0426693 188.12721607 248.64051348 186.24365234 251.29052734 C185.58365234 251.29052734 184.92365234 251.29052734 184.24365234 251.29052734 C183.01708984 250.00537109 183.01708984 250.00537109 181.61865234 248.22802734 C178.77195316 244.78566847 175.67119678 241.94858807 172.27099609 239.06396484 C169.60413846 236.73110672 167.14708054 234.22292031 164.68896484 231.67333984 C162.16847909 229.26184806 159.99285333 229.06544744 156.61865234 228.72802734 C155.80138672 228.64423828 154.98412109 228.56044922 154.14208984 228.47412109 C153.51560547 228.41353516 152.88912109 228.35294922 152.24365234 228.29052734 C152.73590095 225.73083461 153.49065906 223.79786737 154.66943359 221.44677734 C161.57516962 207.60103365 161.91710425 193.48349281 157.56005859 178.83349609 C152.97630715 166.49681194 143.96987634 157.15363934 132.24365234 151.29052734 C132.24365234 149.97052734 132.24365234 148.65052734 132.24365234 147.29052734 C133.46052734 147.22865234 134.67740234 147.16677734 135.93115234 147.10302734 C147.51620119 145.78737511 158.19840134 140.60161668 165.49365234 131.47802734 C172.54875167 121.44325391 174.18461796 111.41705608 173.24365234 99.29052734 C170.89660111 89.48655905 164.82131255 81.71739218 156.78271484 75.82958984 C149.96738617 71.69845216 143.39342922 70.19909474 135.49365234 70.29052734 C131.39037837 70.09024849 129.84528284 69.91585219 126.96240234 66.91943359 C125.62359652 64.83419039 124.3437001 62.71019465 123.11865234 60.55615234 C113.93765699 44.56591877 95.00694144 32.86034459 77.44628906 27.86914062 C58.07156736 22.77957174 37.68258349 23.32346772 19.24365234 31.29052734 C18.25655273 31.7074585 18.25655273 31.7074585 17.24951172 32.1328125 C9.00148864 35.69901701 1.89641019 40.24156765 -4.75634766 46.29052734 C-5.59939453 47.05236328 -6.44244141 47.81419922 -7.31103516 48.59912109 C-13.61948713 54.59119174 -18.12987354 60.95823024 -22.75634766 68.29052734 C-24.47785685 70.01203653 -26.76463413 69.65825901 -29.07666016 69.88525391 C-40.81689499 71.0582254 -50.11372531 74.31040456 -58.44775391 83.06787109 C-64.47468249 90.45425725 -67.49253329 99.00747295 -67.07275391 108.54052734 C-65.7624891 119.92850785 -61.3264026 131.43250952 -52.15478516 138.72412109 C-44.45550555 143.75247797 -36.9355993 146.83156476 -27.75634766 147.29052734 C-25.88857556 149.15829944 -25.88301581 152.22238373 -25.38134766 154.72802734 C-23.76445429 165.29698371 -23.76445429 165.29698371 -18.75634766 174.29052734 C-18.30259766 173.46552734 -17.84884766 172.64052734 -17.38134766 171.79052734 C-16.84509766 170.96552734 -16.30884766 170.14052734 -15.75634766 169.29052734 C-15.09634766 169.29052734 -14.43634766 169.29052734 -13.75634766 169.29052734 C-13.53720703 169.84740234 -13.31806641 170.40427734 -13.09228516 170.97802734 C-5.17466771 190.03180592 13.07365276 201.96490253 31.30615234 210.22802734 C38.87653467 213.17713211 46.88468516 214.39031639 54.99755859 214.20458984 C58.69526619 214.16537767 61.69583804 214.22890516 65.24365234 215.29052734 C67.66192964 218.04789887 69.05019624 220.7780373 70.62646484 224.08349609 C75.65692011 234.05935062 85.98157709 240.61251797 96.22021484 244.38818359 C108.69699145 247.927111 119.17932639 246.51558664 131.24365234 242.29052734 C133.48974609 241.53662109 133.48974609 241.53662109 135.24365234 241.29052734 C135.90365234 241.95052734 136.56365234 242.61052734 137.24365234 243.29052734 C136.9609375 245.1887207 136.9609375 245.1887207 136.40771484 247.44287109 C136.01181435 250.3967615 135.90508535 251.75182674 137.50830078 254.30273438 C139.45213559 256.29503477 141.47347633 258.07940296 143.61865234 259.85302734 C144.35148438 260.49780029 145.08431641 261.14257324 145.83935547 261.80688477 C147.95350805 263.66050683 150.09427137 265.47799744 152.24365234 267.29052734 C154.0860811 268.88474759 155.91549936 270.49237166 157.74365234 272.10302734 C158.43458984 272.68697266 159.12552734 273.27091797 159.83740234 273.87255859 C161.24365234 275.29052734 161.24365234 275.29052734 161.24365234 277.29052734 C144.03824873 285.65818266 128.65227059 290.59504693 109.32128906 290.58105469 C107.95810077 290.58705435 106.59491584 290.59386315 105.23173523 290.60140991 C101.55985614 290.61893424 97.8880705 290.62375959 94.21615362 290.62504148 C91.91219098 290.62647176 89.60825144 290.63075786 87.30429459 290.63603592 C79.23816697 290.65449369 71.17210507 290.66271218 63.10595703 290.66113281 C55.63341495 290.65993365 48.16116273 290.68100267 40.68869388 290.71262014 C34.23559228 290.73893367 27.78258445 290.7494938 21.32942975 290.74822199 C17.49200596 290.74771662 13.65484001 290.75316029 9.81747055 290.77457809 C-18.6113769 290.92224642 -43.70702635 288.09042149 -65.41650391 267.64990234 C-82.90108989 250.01936823 -88.88645186 228.32384892 -88.93334961 204.03442383 C-88.93962517 202.59947042 -88.94627291 201.16451859 -88.95326233 199.72956848 C-88.97417743 195.04026392 -88.98465377 190.35095951 -88.99462891 185.66162109 C-88.99868133 184.03863064 -89.00279839 182.41564035 -89.00697899 180.79265022 C-89.02600408 173.16323869 -89.04023999 165.53383666 -89.04859096 157.90440601 C-89.05834977 149.13683355 -89.08464507 140.36951446 -89.12509185 131.60203117 C-89.15538408 124.79914192 -89.17007222 117.99632477 -89.17337197 111.19336945 C-89.17570771 107.14244898 -89.18447333 103.09179998 -89.20983315 99.04095268 C-89.23334972 95.22324095 -89.23725411 91.40597493 -89.22707176 87.58820915 C-89.22635121 85.54551202 -89.24527517 83.50283629 -89.26513672 81.4602356 C-89.13968608 58.79842787 -79.03100975 38.18960734 -63.51416016 21.94287109 C-45.85065599 5.06119416 -23.83879747 -0.01815782 0 0 Z " fill="#F58E3B" transform="translate(201.75634765625,95.70947265625)"/>
<path d="M0 0 C1.78627808 0.01353516 1.78627808 0.01353516 3.60864258 0.02734375 C27.78351346 0.49920839 49.82537984 10.4667144 66.84375 27.82421875 C68.51738051 29.91313444 69.74964406 31.76477814 71.03125 34.08203125 C74.60756431 41.22231402 74.60756431 41.22231402 80.97265625 45.4140625 C84.26102019 45.60306087 84.26102019 45.60306087 87.59765625 45.46875 C97.16076027 45.37927066 105.15715149 50.04806621 111.9375 56.4375 C119.36252693 63.77947294 123.0486663 71.6268339 123.1875 82.0625 C123.06908007 93.50186537 119.6759793 103.16948118 111.86328125 111.703125 C107.00999589 116.27690177 102.18416322 119.17680283 95.9375 121.4375 C94.9475 121.85 93.9575 122.2625 92.9375 122.6875 C88.9039719 123.69588202 85.07196308 123.60287852 80.9375 123.4375 C80.9375 124.7575 80.9375 126.0775 80.9375 127.4375 C82.03964844 127.83582031 82.03964844 127.83582031 83.1640625 128.2421875 C93.32424846 132.62108455 101.30639979 141.86736226 105.87109375 151.75 C112.42625323 168.26996236 110.56319959 183.3385277 103.9375 199.4375 C102.23828125 202.49609375 102.23828125 202.49609375 100.9375 204.4375 C101.494375 204.35628906 102.05125 204.27507812 102.625 204.19140625 C106.25192503 203.89120468 108.90611843 203.80280365 112.0703125 205.75 C114.13324508 207.5621447 116.04534505 209.44801197 117.9375 211.4375 C119.1028825 212.60544942 120.26951283 213.77215533 121.4375 214.9375 C122.27474609 215.79988281 122.27474609 215.79988281 123.12890625 216.6796875 C125.73163097 219.20933356 128.57034855 221.43649033 131.43359375 223.6640625 C132.9375 225.4375 132.9375 225.4375 133.28515625 227.9609375 C132.9375 230.4375 132.9375 230.4375 130.9375 233.4375 C126.94636155 232.9007529 125.23693492 231.0256996 122.53125 228.1484375 C121.70496094 227.28992188 120.87867188 226.43140625 120.02734375 225.546875 C118.29687681 223.719836 116.57032409 221.88908191 114.84765625 220.0546875 C114.02136719 219.19875 113.19507813 218.3428125 112.34375 217.4609375 C111.59416016 216.66606934 110.84457031 215.87120117 110.07226562 215.05224609 C108.09723043 213.19661974 108.09723043 213.19661974 105.79150391 213.55688477 C103.10774217 214.83161858 101.68986079 216.71932786 99.8125 219 C98.56114932 220.51342601 97.27740642 222.00188598 95.9375 223.4375 C95.2775 223.4375 94.6175 223.4375 93.9375 223.4375 C98.44009108 228.90919181 103.30765947 233.63941618 108.625 238.31640625 C111.37974218 240.84313768 113.66209744 243.47947667 115.9375 246.4375 C119.61819887 244.90106148 121.92525204 242.65599055 124.6875 239.8125 C125.48671875 238.99523437 126.2859375 238.17796875 127.109375 237.3359375 C127.71265625 236.70945312 128.3159375 236.08296875 128.9375 235.4375 C129.2675 236.4275 129.5975 237.4175 129.9375 238.4375 C128.40567277 240.05106504 126.86155437 241.65296607 125.3125 243.25 C124.45398438 244.14332031 123.59546875 245.03664063 122.7109375 245.95703125 C119.9150591 248.45757039 117.28329281 249.80209147 113.9375 251.4375 C113.2775 252.4275 112.6175 253.4175 111.9375 254.4375 C105.97101471 258.61908363 99.19178991 260.97700771 92.3125 263.1875 C91.41015625 263.49042969 90.5078125 263.79335938 89.578125 264.10546875 C80.83641132 266.97264889 72.86625375 267.59412453 63.7109375 267.65869141 C62.59903549 267.6701973 61.48713348 267.68170319 60.34153748 267.69355774 C56.66521939 267.73021792 52.98888488 267.75992421 49.3125 267.7890625 C46.72875772 267.81222197 44.1450175 267.83561255 41.5612793 267.85922241 C36.13088049 267.90768637 30.70046813 267.95265217 25.27001953 267.99511719 C19.75791729 268.03829171 14.24589506 268.08678877 8.73388672 268.140625 C-43.61113154 268.64976823 -43.61113154 268.64976823 -62.8125 268.1484375 C-63.98192139 268.12455963 -65.15134277 268.10068176 -66.35620117 268.07608032 C-72.02814299 267.87399922 -76.8670225 267.18719663 -82.17651367 265.13589478 C-84.75195 264.18219154 -87.34692829 263.78565022 -90.0625 263.4375 C-90.0625 262.7775 -90.0625 262.1175 -90.0625 261.4375 C-90.7225 261.1075 -91.3825 260.7775 -92.0625 260.4375 C-90.86625 260.705625 -89.67 260.97375 -88.4375 261.25 C-87.60879772 261.4307479 -86.78009544 261.6114958 -85.92628098 261.79772091 C-83.93786912 262.24193935 -81.95460381 262.70958507 -79.97597122 263.19551182 C-71.47881914 265.19638104 -63.52646356 265.87318098 -54.81542969 265.84155273 C-53.45341947 265.8472751 -52.09141403 265.85424645 -50.72941589 265.86235046 C-47.07412341 265.8800955 -43.41907341 265.87914871 -39.76375103 265.87340808 C-36.69037713 265.87028758 -33.61704791 265.87644038 -30.54368043 265.88244683 C-23.28022077 265.89643051 -16.01687886 265.89498365 -8.75341797 265.88354492 C-1.31092395 265.87208174 6.13120892 265.88612305 13.57365537 265.9129414 C20.00901071 265.93524505 26.44425394 265.94170274 32.87964511 265.93586498 C36.70306733 265.93252751 40.52625856 265.93469194 44.34964752 265.95211601 C72.35601638 266.1620799 72.35601638 266.1620799 98.8125 257.75 C106.56882015 254.07230148 106.56882015 254.07230148 109.9375 253.4375 C105.22106894 247.65987195 100.07952349 242.95570885 94.40722656 238.13769531 C92.73815636 236.70974597 91.08727567 235.26267078 89.4375 233.8125 C88.89657715 233.35713867 88.3556543 232.90177734 87.79833984 232.43261719 C85.36063403 230.26873156 84.02108171 229.03737287 83.5625 225.74609375 C83.91170752 223.59628496 84.3186914 221.52597902 84.9375 219.4375 C81.20481175 218.19327058 80.09648627 218.89732901 76.5 220.3125 C65.14419215 224.73122251 53.43614456 224.83621127 41.9375 220.4375 C29.68693327 214.30501889 19.94201318 205.89392146 13.9375 193.4375 C13.9375 192.7775 13.9375 192.1175 13.9375 191.4375 C13.08929688 191.46070313 12.24109375 191.48390625 11.3671875 191.5078125 C-12.78326405 191.87935791 -35.3722964 183.35856432 -53.0625 166.4375 C-65.0625 153.3347973 -65.0625 153.3347973 -65.0625 145.4375 C-65.495625 145.870625 -65.92875 146.30375 -66.375 146.75 C-67.9375 148.3125 -69.5 149.875 -71.0625 151.4375 C-73.73091327 147.45775221 -74.99532119 143.69040673 -76.1875 139.0625 C-76.52007812 137.79664063 -76.85265625 136.53078125 -77.1953125 135.2265625 C-78.0217468 131.61556577 -78.59783419 128.10741156 -79.0625 124.4375 C-80.2175 124.4375 -81.3725 124.4375 -82.5625 124.4375 C-91.99334353 123.36139741 -102.29662697 117.95754876 -108.75 111.0625 C-116.6711014 100.88572071 -120.46897311 89.32720292 -119.0625 76.4375 C-116.59226349 65.72821117 -110.45078047 57.39919027 -101.640625 50.94140625 C-94.9981903 47.06665267 -88.01216371 45.30324692 -80.375 45.5625 C-76.35733325 45.32445905 -75.33204647 44.73544209 -72.578125 41.69140625 C-70.84921024 39.27505433 -69.25245064 36.77913847 -67.64453125 34.28125 C-57.73136644 19.01733738 -42.10806804 9.5949996 -25.11108398 4.10083008 C-23.66974628 3.63412592 -22.23743142 3.13907856 -20.81274414 2.6237793 C-13.84859772 0.2536493 -7.32072888 -0.06637765 0 0 Z " fill="#261313" transform="translate(253.0625,119.5625)"/>
<path d="M0 0 C5.87636011 3.05392654 10.76806341 6.91050599 14.578125 12.33984375 C17.25952915 11.28643498 18.49362686 10.45684118 20.203125 8.08984375 C25.16062829 2.34957678 33.22443618 -2.20796152 40.8125 -2.99609375 C51.79089967 -3.11807597 58.75552336 -1.09306912 66.8515625 6.40625 C71.97158284 12.14020943 73.9939604 19.04168365 73.84375 26.65234375 C72.74585682 37.76043944 68.383333 44.66990799 60.578125 52.33984375 C59.41576844 53.59558202 58.26760522 54.86476192 57.140625 56.15234375 C56.68816406 56.65378906 56.23570312 57.15523437 55.76953125 57.671875 C52.95251679 61.61569525 52.48277239 64.90990228 52.640625 69.65234375 C52.36935562 73.40490352 52.07548137 74.8538306 49.3515625 77.515625 C46.515625 79.46484375 46.515625 79.46484375 43.73046875 81.09765625 C40.57685172 83.06236222 40.57685172 83.06236222 39.09033203 85.54760742 C36.78808478 88.898229 34.7450721 91.76140566 30.65060425 92.85437012 C24.98499344 93.65227863 19.28467346 93.49869087 13.578125 93.40234375 C11.83201928 93.40542187 10.08591573 93.41254521 8.33984375 93.42382812 C4.08453279 93.44257456 -0.16707553 93.40624556 -4.421875 93.33984375 C-4.58874948 95.75630157 -4.58874948 95.75630157 -4.421875 98.33984375 C-1.63009931 101.13161944 0.20996072 100.65197859 4.1171875 100.75390625 C6.07011719 100.81191406 6.07011719 100.81191406 8.0625 100.87109375 C9.44270362 100.90255138 10.82291204 100.93379866 12.203125 100.96484375 C13.59117041 101.00302309 14.97919211 101.0420748 16.3671875 101.08203125 C19.77069685 101.17657318 23.17419665 101.26212272 26.578125 101.33984375 C26.4352002 102.25330566 26.29227539 103.16676758 26.14501953 104.10791016 C25.15044091 110.7051369 24.32725139 117.04354231 24.453125 123.71484375 C24.47117187 124.98070312 24.48921875 126.2465625 24.5078125 127.55078125 C24.53101563 128.47117187 24.55421875 129.3915625 24.578125 130.33984375 C10.09606201 130.8740182 -1.91635325 129.82463833 -13.16796875 119.78125 C-22.27320619 110.31271131 -21.99337395 98.03777281 -21.984375 85.77734375 C-22.00680544 71.48317063 -22.16270395 61.0825413 -32.421875 50.33984375 C-40.58698049 40.85292815 -43.21273233 33.67829168 -42.7734375 21.12890625 C-42.32745911 16.3222503 -41.26143367 13.18881364 -38.421875 9.33984375 C-37.761875 8.30859375 -37.101875 7.27734375 -36.421875 6.21484375 C-26.91272472 -4.33799376 -12.44525136 -5.11274215 0 0 Z " fill="#F8F9EC" transform="translate(239.421875,171.66015625)"/>
<path d="M0 0 C18.68896897 0.08233026 36.97028371 9.00379085 50.109375 21.921875 C58.82709928 30.94302743 64.81235972 41.21518799 69 53 C69.56460938 54.52753906 69.56460938 54.52753906 70.140625 56.0859375 C71.66530258 61.63979076 71.28758199 67.47816917 71.25 73.1875 C71.25773438 74.34314453 71.26546875 75.49878906 71.2734375 76.68945312 C71.24877108 87.67217562 69.78210655 97.68516396 66 108 C65.34 108 64.68 108 64 108 C63.01 109.98 63.01 109.98 62 112 C58.87507749 112.05791844 55.75029234 112.09356746 52.625 112.125 C51.73554688 112.14175781 50.84609375 112.15851563 49.9296875 112.17578125 C49.07890625 112.18222656 48.228125 112.18867188 47.3515625 112.1953125 C46.56604004 112.20578613 45.78051758 112.21625977 44.97119141 112.22705078 C43 112 43 112 41 110 C40.5859375 107.609375 40.5859375 107.609375 41 105 C42.9765625 103.078125 42.9765625 103.078125 45.625 101.25 C54.28063003 94.69715014 58.69353027 86.59412368 61 76 C62.32375039 63.55079687 59.9481392 53.35588638 52.24609375 43.44921875 C46.60424167 37.297147 38.41303635 32.0611285 29.9140625 31.6015625 C28.484413 31.58853571 27.05443242 31.59688687 25.625 31.625 C24.87331543 31.63587646 24.12163086 31.64675293 23.34716797 31.65795898 C13.59715214 31.93788902 7.46476696 35.00940485 -0.51953125 40.57421875 C-3 42 -3 42 -7 42 C-8.75390625 40.828125 -8.75390625 40.828125 -10.5625 39.25 C-20.57626247 31.52457448 -31.76986724 30.67782348 -44 32 C-52.77437703 33.79068919 -59.49400339 39.31513117 -64.7890625 46.390625 C-70.13639118 54.76722854 -73.4588325 63.99461109 -72 74 C-69.77287606 82.97511912 -67.0539789 92.9550945 -58.95629883 98.36547852 C-55.25404567 100.89420975 -53.26500051 102.69527454 -52.35229492 107.18896484 C-52.21289472 110.96729639 -52.30179177 114.66201437 -52.5 118.4375 C-52.53609375 119.74138672 -52.5721875 121.04527344 -52.609375 122.38867188 C-52.70334757 125.59548584 -52.83461012 128.7962071 -53 132 C-54.32 131.67 -55.64 131.34 -57 131 C-57 131.99 -57 132.98 -57 134 C-55.68 133.67 -54.36 133.34 -53 133 C-53 135.64 -53 138.28 -53 141 C-57.89167203 140.58071383 -59.76624032 138.55713565 -63 135 C-64.20849609 133.86304688 -64.20849609 133.86304688 -65.44140625 132.703125 C-77.04676876 120.44219239 -81.86420202 98.33455678 -82 82 C-82.05924174 80.59106222 -82.12058448 79.18221182 -82.18359375 77.7734375 C-82.9210884 56.42974501 -76.01674371 39.59448164 -61.828125 23.54296875 C-51.98074686 13.06806161 -38.85480567 3.45267888 -24.1171875 2.6640625 C-22.32845468 2.61583766 -20.53927535 2.58210717 -18.75 2.5625 C-17.47165283 2.5469104 -17.47165283 2.5469104 -16.16748047 2.53100586 C-10.66429399 2.60906906 -6.94152938 3.61231208 -2 6 C0.32189536 6.4054103 2.65515344 6.76072994 5 7 C3.35 4.69 1.7 2.38 0 0 Z " fill="#B46922" transform="translate(260,129)"/>
<path d="M0 0 C10.29876017 6.65081312 16.02718514 15.69811977 18.90234375 27.52734375 C20.99686509 38.95790981 18.47024772 50.25416665 12.12890625 59.9609375 C5.39564742 69.01495674 -2.72478684 74.2589228 -13.59375 77.27734375 C-26.29295626 78.36620889 -37.5413577 77.31866669 -47.75390625 68.96484375 C-56.60359179 60.84793472 -62.76332859 50.94848827 -63.9296875 38.76953125 C-64.0703147 25.74745284 -62.13232539 15.82268114 -53.01538086 6.32592773 C-38.36083027 -7.99903481 -17.51369708 -10.37940146 0 0 Z " fill="#F78833" transform="translate(335.59375,256.72265625)"/>
<path d="M0 0 C10.29876017 6.65081312 16.02718514 15.69811977 18.90234375 27.52734375 C20.99686509 38.95790981 18.47024772 50.25416665 12.12890625 59.9609375 C5.39564742 69.01495674 -2.72478684 74.2589228 -13.59375 77.27734375 C-26.29295626 78.36620889 -37.5413577 77.31866669 -47.75390625 68.96484375 C-56.60359179 60.84793472 -62.76332859 50.94848827 -63.9296875 38.76953125 C-64.0703147 25.74745284 -62.13232539 15.82268114 -53.01538086 6.32592773 C-38.36083027 -7.99903481 -17.51369708 -10.37940146 0 0 Z M-45.59375 12.27734375 C-51.93214577 20.36301592 -55.23558278 28.15211982 -54.96484375 38.50390625 C-53.65838729 48.26794928 -49.17822049 56.97882154 -41.59375 63.27734375 C-33.36886475 68.35383079 -26.23265476 70.11295088 -16.59375 69.27734375 C-6.81632383 66.82949027 0.87977788 61.25129038 6.15234375 52.703125 C10.49327404 44.30525051 11.64485761 36.37178142 9.21875 27.27734375 C6.61386347 19.36575814 2.10564962 12.34368434 -4.59375 7.27734375 C-7.84267459 5.64546382 -11.13958208 4.4005522 -14.59375 3.27734375 C-15.58375 2.94734375 -16.57375 2.61734375 -17.59375 2.27734375 C-29.12390983 1.30873582 -37.30909137 4.09661453 -45.59375 12.27734375 Z " fill="#F3F5ED" transform="translate(335.59375,256.72265625)"/>
<path d="M0 0 C8.50136201 6.01942075 13.83124563 13.59008924 16.75 23.5625 C17.79052414 33.70761037 15.8587515 42.59797095 9.6875 50.9375 C3.53948101 58.15587474 -3.38144783 62.26659287 -12.890625 63.3203125 C-22.04175931 63.6722792 -29.19296623 61.56539488 -36.3125 55.75 C-43.55272309 48.88930473 -48.01356387 40.1041387 -48.375 30.0625 C-47.95848981 19.68178439 -44.09125895 11.589501 -37 4 C-25.43499418 -5.05712472 -13.36640846 -6.92622984 0 0 Z M-35.74609375 15.19140625 C-39.86102274 21.1266465 -41.13587726 26.93231926 -40 34 C-37.14430417 41.79650291 -32.8000922 48.7654831 -25.53515625 53.04296875 C-19.43512003 55.34575592 -12.46352054 55.14110183 -6.30859375 53.11328125 C-0.39592588 50.10192249 4.18557486 45.66002597 7.13671875 39.70703125 C9.20246594 33.2293715 9.29461387 24.81626855 6.4375 18.5625 C3.10566312 13.09547187 -1.69675198 7.65187119 -7.85546875 5.44140625 C-19.90843055 2.96055983 -28.20588665 5.63773786 -35.74609375 15.19140625 Z " fill="#221314" transform="translate(329,263)"/>
<path d="M0 0 C1.29640411 -0.00671722 2.59280823 -0.01343445 3.92849731 -0.02035522 C7.44131532 -0.03780728 10.95403553 -0.04270172 14.46689272 -0.0439868 C16.67457718 -0.04542111 18.88223777 -0.04971455 21.08991623 -0.05498123 C28.82884005 -0.07341419 36.56769558 -0.08166053 44.30664062 -0.08007812 C51.46052215 -0.07887921 58.6141008 -0.0999497 65.76790583 -0.13156545 C71.95954635 -0.15792983 78.15108919 -0.16843705 84.34278524 -0.16716731 C88.0187389 -0.16666346 91.69442288 -0.17201927 95.37031937 -0.19352341 C125.55802098 -0.35754425 150.7730969 2.57232771 173.49365234 24.16552734 C186.82211523 38.19833989 196.40179651 57.72523439 196.49365234 77.29052734 C196.43156111 78.95812049 196.35716712 80.62564398 196.24365234 82.29052734 C195.91365234 82.29052734 195.58365234 82.29052734 195.24365234 82.29052734 C195.13875488 81.46029053 195.13875488 81.46029053 195.03173828 80.61328125 C193.17809604 66.04330989 193.17809604 66.04330989 188.24365234 52.29052734 C186.24365234 46.69052734 186.24365234 46.69052734 186.24365234 44.29052734 C185.58365234 44.29052734 184.92365234 44.29052734 184.24365234 44.29052734 C183.81052734 43.34177734 183.37740234 42.39302734 182.93115234 41.41552734 C181.45063034 38.09010798 181.45063034 38.09010798 178.24365234 36.29052734 C177.55611934 34.6323595 176.88803951 32.96593398 176.24365234 31.29052734 C175.58365234 30.96052734 174.92365234 30.63052734 174.24365234 30.29052734 C174.24365234 29.63052734 174.24365234 28.97052734 174.24365234 28.29052734 C173.58365234 28.29052734 172.92365234 28.29052734 172.24365234 28.29052734 C169.94826039 26.1128478 167.77115173 23.8586036 165.61865234 21.54052734 C164.14748616 20.03393648 164.14748616 20.03393648 161.24365234 19.29052734 C161.24365234 18.63052734 161.24365234 17.97052734 161.24365234 17.29052734 C160.40833984 17.13583984 160.40833984 17.13583984 159.55615234 16.97802734 C156.15713242 15.96750791 153.27615071 14.41344223 150.86083984 11.78662109 C148.95041539 10.01924774 147.41168084 9.4777553 144.93115234 8.72802734 C144.19251953 8.49986328 143.45388672 8.27169922 142.69287109 8.03662109 C141.88462891 7.79041016 141.07638672 7.54419922 140.24365234 7.29052734 C138.88367126 6.7915242 138.88367126 6.7915242 137.49621582 6.28244019 C122.94931825 1.84616873 105.29972403 4.14220294 90.23016167 4.15620184 C86.59846806 4.15876618 82.96677674 4.15637712 79.33508301 4.15481567 C73.24991392 4.15300758 67.16475706 4.15536627 61.07958984 4.16015625 C54.06300939 4.16561589 47.04645792 4.16381843 40.02987814 4.15832984 C33.97257792 4.15378316 27.91528639 4.15315519 21.85798502 4.15576851 C18.25408865 4.15732022 14.6502059 4.15755517 11.04631042 4.15423203 C7.03590184 4.15079055 3.02554292 4.1555684 -0.98486328 4.16113281 C-2.75546112 4.15809647 -2.75546112 4.15809647 -4.56182861 4.15499878 C-15.69072509 4.17251559 -15.69072509 4.17251559 -26.44384766 6.79052734 C-28.78694206 7.62620436 -30.86105642 8.30840445 -33.31884766 8.72802734 C-38.47333477 9.91752437 -43.05484776 12.85884876 -47.56884766 15.54052734 C-50.75634766 17.29052734 -50.75634766 17.29052734 -53.75634766 17.29052734 C-54.25134766 18.77552734 -54.25134766 18.77552734 -54.75634766 20.29052734 C-55.72572266 20.78552734 -56.69509766 21.28052734 -57.69384766 21.79052734 C-65.60496945 26.03272309 -71.89696844 33.8712441 -74.75634766 42.29052734 C-76.04072842 44.98342977 -77.40330112 47.63109106 -78.75634766 50.29052734 C-79.41634766 50.29052734 -80.07634766 50.29052734 -80.75634766 50.29052734 C-83.31953018 58.18003951 -85.10561908 66.16566471 -86.75634766 74.29052734 C-87.08634766 74.29052734 -87.41634766 74.29052734 -87.75634766 74.29052734 C-87.70494151 59.279932 -82.56349368 46.33256989 -73.75634766 34.29052734 C-73.13888672 33.43974609 -72.52142578 32.58896484 -71.88525391 31.71240234 C-58.2265566 13.79395035 -39.70224491 3.7931586 -17.58354568 0.71952438 C-11.71510907 0.06172149 -5.90006736 -0.00449403 0 0 Z " fill="#D2BE85" transform="translate(201.75634765625,95.70947265625)"/>
<path d="M0 0 C8.40991068 -0.74754762 16.86290772 2.34369307 23.50390625 7.51953125 C29.23289832 13.18869051 32.02913244 20.29504602 32.375 28.25 C32.1770655 37.36735774 28.32841564 45.47557149 22 52 C15.8293942 57.0671033 10.07947499 60 2 60 C2.25990962 56.17283084 2.68457271 52.61742505 4 49 C5.9490268 47.68127774 7.62153993 47.28129755 9.8984375 46.7265625 C13.68350681 45.41796976 15.89134639 42.29057411 18 39 C20.52225336 33.72227123 20.68565525 28.75611814 20 23 C17.82596538 18.57141097 15.12690814 15.68728902 11 13 C9.824375 12.773125 8.64875 12.54625 7.4375 12.3125 C3.47119934 10.79809429 3.22774784 10.20251914 1.5625 6.5 C0 2.47280335 0 2.47280335 0 0 Z " fill="#F4F6EC" transform="translate(335,174)"/>
<path d="M0 0 C0.03842815 3.38936259 -0.40687355 5.98754271 -2 9 C-5.16249817 11.07945085 -8.43224666 12.61985653 -11.84375 14.25390625 C-16.21391462 16.6715592 -18.38973092 19.30026118 -20 24 C-21.03484468 30.20906805 -18.82853535 35.53768092 -16 41 C-13.16385014 44.70275121 -11.20142528 45.99899912 -6.8125 47.0625 C-4.73828125 47.7109375 -4.73828125 47.7109375 -3 49 C-1.67318062 52.9533802 -1.25732671 56.85060686 -1 61 C-12.36907073 58.98011434 -20.2884394 54.47514438 -27 45 C-31.17801058 36.49476418 -32.54367618 27.61653273 -29.9375 18.375 C-26.81342102 10.18875601 -21.19526369 5.56965302 -13.4296875 1.91015625 C-8.90240012 0.21424313 -4.81429275 -0.1119603 0 0 Z " fill="#F3F5EC" transform="translate(174,174)"/>
<path d="M0 0 C3.70981445 1.64880642 6.33252649 3.95145885 9 7 C10.41798392 11.25395176 10.92430874 14.90975825 9.05859375 19.12890625 C6.68347289 23.17182358 4.52698425 26.31554074 0 28 C-4.68745782 28.52082865 -6.97501218 28.4730713 -11.25 26.5 C-15.51227831 22.62520154 -17.5914921 18.55317438 -18.5 12.875 C-17.66290326 8.06169373 -15.05385927 5.14419007 -11.8125 1.625 C-7.8444716 -0.66763863 -4.48093384 -0.67744537 0 0 Z " fill="#211315" transform="translate(231,186)"/>
<path d="M0 0 C4.12900703 3.34784354 7.03967871 5.965251 7.8125 11.375 C6.89652597 17.78681818 4.14196811 21.6492154 -0.6875 25.875 C-4.30680698 27.08143566 -6.87981005 27.19768559 -10.6875 26.875 C-15.5592278 24.4391361 -17.93332077 22.04008328 -19.6875 16.875 C-20.37900695 12.11982255 -20.16742515 8.8348503 -18 4.5 C-12.90292628 -1.28586746 -7.21367239 -3.01967681 0 0 Z " fill="#221416" transform="translate(288.6875,187.125)"/>
<path d="M0 0 C6.15624285 0.83020423 10.14899079 6.63738519 14.3125 10.8125 C15.25673828 11.72837891 16.20097656 12.64425781 17.17382812 13.58789062 C18.50510742 14.91530273 18.50510742 14.91530273 19.86328125 16.26953125 C20.68094971 17.08010986 21.49861816 17.89068848 22.34106445 18.72583008 C24 21 24 21 23.90136719 23.13452148 C22.47985849 26.07649006 20.27832784 27.99806436 17.9375 30.25 C16.55884766 31.58804687 16.55884766 31.58804687 15.15234375 32.953125 C14.44207031 33.62859375 13.73179687 34.3040625 13 35 C9.72622888 33.90874296 9.25117374 33.34184353 7.1875 30.75 C3.07209472 25.850708 -1.61309367 21.6474392 -6.3762207 17.39355469 C-7.95258196 15.96688707 -9.48090232 14.48749371 -11 13 C-11 12.34 -11 11.68 -11 11 C-9.56712057 9.80038001 -8.13026321 8.60498972 -6.66796875 7.44140625 C-4.09577474 5.2185969 -2.10560345 2.66296907 0 0 Z " fill="#F7F8F4" transform="translate(358,332)"/>
<path d="M0 0 C1.21851151 -0.00137466 2.43702301 -0.00274933 3.69245911 -0.00416565 C5.03440882 -0.00062702 6.37635828 0.00300779 7.7183075 0.00672913 C9.13774615 0.00701134 10.55718496 0.0068526 11.97662354 0.00628662 C15.82332504 0.00599996 19.66999529 0.01187547 23.51668954 0.01886058 C27.53923143 0.02511598 31.56177406 0.02569965 35.58432007 0.02688599 C43.19859342 0.02999285 50.81285241 0.03819755 58.42711943 0.04823548 C67.09695962 0.05941663 75.7668005 0.06491211 84.4366461 0.06993091 C102.26841573 0.08038069 120.10017198 0.09796766 137.93193054 0.12025452 C137.93193054 0.45025452 137.93193054 0.78025452 137.93193054 1.12025452 C136.89936127 1.13433302 136.89936127 1.13433302 135.84593201 1.14869595 C119.07754276 1.37762919 102.30922986 1.61147225 85.54098511 1.8507452 C77.43191111 1.96633912 69.32282028 2.08028589 61.21366882 2.19032288 C54.14375913 2.28626211 47.07390119 2.38532463 40.00408745 2.48810011 C36.26249193 2.54238444 32.52088931 2.59513015 28.77922058 2.64413261 C24.59697233 2.69896373 20.41485447 2.76076924 16.23271179 2.82313538 C14.9991243 2.83824158 13.7655368 2.85334778 12.49456787 2.86891174 C1.17825941 2.97858715 1.17825941 2.97858715 -9.75556946 5.62025452 C-12.09866386 6.45593153 -14.17277823 7.13813162 -16.63056946 7.55775452 C-21.78505658 8.74725154 -26.36656956 11.68857593 -30.88056946 14.37025452 C-34.06806946 16.12025452 -34.06806946 16.12025452 -37.06806946 16.12025452 C-37.56306946 17.60525452 -37.56306946 17.60525452 -38.06806946 19.12025452 C-39.03744446 19.61525452 -40.00681946 20.11025452 -41.00556946 20.62025452 C-48.91669126 24.86245026 -55.20869024 32.70097127 -58.06806946 41.12025452 C-59.35245022 43.81315694 -60.71502293 46.46081823 -62.06806946 49.12025452 C-62.72806946 49.12025452 -63.38806946 49.12025452 -64.06806946 49.12025452 C-66.63125198 57.00976668 -68.41734088 64.99539189 -70.06806946 73.12025452 C-70.39806946 73.12025452 -70.72806946 73.12025452 -71.06806946 73.12025452 C-71.01666331 58.10965917 -65.87521548 45.16229707 -57.06806946 33.12025452 C-56.45060852 32.26947327 -55.83314758 31.41869202 -55.19697571 30.54212952 C-42.3976293 13.75103523 -21.79490345 -0.01900166 0 0 Z " fill="#FAF2CA" transform="translate(185.0680694580078,96.87974548339844)"/>
<path d="M0 0 C2.42054342 0.6690933 3.93948517 2.02736806 5.921875 3.53125 C9.03340503 3.37168436 10.73375876 2.65183733 13.359375 0.96875 C16.53214388 -0.81109595 18.33491871 -1.00297753 21.921875 -0.46875 C24.359375 1.15625 24.359375 1.15625 25.921875 3.53125 C25.609375 8.84375 25.609375 8.84375 23.921875 10.53125 C21.92619621 10.72438021 19.92977981 10.91445963 17.9296875 11.0546875 C15.35719185 11.66527985 14.46337643 12.38818704 12.921875 14.53125 C12.38271423 17.00101772 12.38271423 17.00101772 12.296875 19.65625 C12.00520833 24.44791667 12.00520833 24.44791667 10.921875 25.53125 C7.421875 25.65625 7.421875 25.65625 3.921875 25.53125 C1.80735262 23.41672762 2.47625851 18.96129574 2.30078125 16.09765625 C2.15875535 13.3706333 2.15875535 13.3706333 -0.078125 11.53125 C-1.2125 11.386875 -2.346875 11.2425 -3.515625 11.09375 C-7.078125 10.53125 -7.078125 10.53125 -9.078125 9.28125 C-10.078125 7.53125 -10.078125 7.53125 -9.953125 5.03125 C-7.99999564 -0.54911961 -5.86490401 -0.9418094 0 0 Z " fill="#1B0F13" transform="translate(247.078125,226.46875)"/>
<path d="M0 0 C1.27834717 -0.0155896 1.27834717 -0.0155896 2.58251953 -0.03149414 C8.58181678 0.05360644 13.89456747 0.73159459 18.44238281 5.04125977 C18.87389648 5.50201904 19.30541016 5.96277832 19.75 6.4375 C19.1422876 6.41131592 18.5345752 6.38513184 17.90844727 6.3581543 C-8.96457364 5.35835744 -25.58192174 12.09933975 -45.65185547 30.02880859 C-48.13892702 32.22104856 -50.6928014 34.32771473 -53.25 36.4375 C-48.37475538 20.83671722 -32.16424366 10.4362917 -18.61328125 2.98828125 C-12.54520323 0.27336408 -6.54972103 0.07177289 0 0 Z " fill="#F7EFD0" transform="translate(241.25,131.5625)"/>
<path d="M0 0 C0.70253906 0.72960937 1.40507812 1.45921875 2.12890625 2.2109375 C4.87486099 4.9539926 7.82891204 7.2965596 10.9375 9.625 C12.43603516 10.75808594 12.43603516 10.75808594 13.96484375 11.9140625 C19.90650922 15.99752371 24.63456673 17.50429319 31.6875 18.125 C39.70449102 18.90149701 39.70449102 18.90149701 43 20 C43 21.98 43 23.96 43 26 C43.66 26.33 44.32 26.66 45 27 C31.67895765 27.49134992 19.65653695 27.007311 9 18 C4.24900885 13.56157406 1.86259167 9.20863891 0 3 C0 2.01 0 1.02 0 0 Z " fill="#C7C3A6" transform="translate(219,275)"/>
<path d="M0 0 C20.7193448 0.46577391 38.83828501 10.366942 53 25 C54.87683341 27.27816886 56.43854949 29.49052597 58 32 C57.505 32.99 57.505 32.99 57 34 C56.50113281 33.52691406 56.00226563 33.05382812 55.48828125 32.56640625 C49.12558167 26.70632567 42.31716098 21.60527653 35 17 C33.98425903 16.35756348 33.98425903 16.35756348 32.94799805 15.70214844 C26.59903255 11.91359917 20.41259402 10.46325462 13.19726562 9.1484375 C6.7676111 7.77100577 3.66938088 5.45731288 0 0 Z " fill="#F6F1D7" transform="translate(260,129)"/>
<path d="M0 0 C2.18359375 1.1015625 2.18359375 1.1015625 5.37109375 3.1015625 C2.73858987 4.41781444 1.56930319 3.84969908 -1.25390625 3.1640625 C-2.07117188 2.96941406 -2.8884375 2.77476562 -3.73046875 2.57421875 C-4.67019531 2.34025391 -4.67019531 2.34025391 -5.62890625 2.1015625 C-6.15484375 3.9578125 -6.15484375 3.9578125 -6.69140625 5.8515625 C-6.88863281 6.54765625 -7.08585937 7.24375 -7.2890625 7.9609375 C-7.66376784 10.32115046 -7.35543949 11.84575301 -6.62890625 14.1015625 C-7.33015625 13.2559375 -8.03140625 12.4103125 -8.75390625 11.5390625 C-11.39087332 8.79682836 -11.39087332 8.79682836 -14.69140625 8.9765625 C-18.35027125 10.37782995 -19.69909133 11.70508824 -21.62890625 15.1015625 C-21.49740799 17.85280503 -21.49740799 17.85280503 -20.62890625 20.1015625 C-18.64890625 20.7615625 -16.66890625 21.4215625 -14.62890625 22.1015625 C-14.62890625 22.4315625 -14.62890625 22.7615625 -14.62890625 23.1015625 C-16.39940314 23.15566937 -18.17037474 23.19440369 -19.94140625 23.2265625 C-21.42060547 23.26136719 -21.42060547 23.26136719 -22.9296875 23.296875 C-25.62890625 23.1015625 -25.62890625 23.1015625 -28.62890625 21.1015625 C-29.49274266 15.05470763 -27.69758107 10.22595151 -24.62890625 5.1015625 C-17.85796601 -1.50010423 -9.03716716 -3.08848209 0 0 Z " fill="#EFD6A2" transform="translate(321.62890625,268.8984375)"/>
<path d="M0 0 C0 0.99 0 1.98 0 3 C-2.31 3.66 -4.62 4.32 -7 5 C-7.33 6.65 -7.66 8.3 -8 10 C-12.09338652 10.04939115 -16.18665798 10.08571501 -20.28027344 10.10986328 C-21.67320781 10.11992877 -23.06612102 10.13358234 -24.45898438 10.15087891 C-26.4595436 10.1751022 -28.46025615 10.18540814 -30.4609375 10.1953125 C-31.66540527 10.20578613 -32.86987305 10.21625977 -34.11083984 10.22705078 C-37 10 -37 10 -39 8 C-39.1875 5.4375 -39.1875 5.4375 -39 3 C-36.94911576 0.94911576 -32.6699541 1.76664695 -29.84375 1.71875 C-28.61754944 1.69113586 -28.61754944 1.69113586 -27.36657715 1.66296387 C-23.85406016 1.58401395 -20.34134325 1.51645471 -16.82861328 1.44775391 C-14.27105892 1.39613876 -11.71367556 1.33884343 -9.15625 1.28125 C-8.35521851 1.26767456 -7.55418701 1.25409912 -6.72888184 1.2401123 C-3.06171177 1.49831485 -3.06171177 1.49831485 0 0 Z " fill="#1A0D0F" transform="translate(273,262)"/>
<path d="M0 0 C0.78503906 0.35191406 0.78503906 0.35191406 1.5859375 0.7109375 C0.8021875 0.9584375 0.0184375 1.2059375 -0.7890625 1.4609375 C-3.52688802 2.42897774 -3.52688802 2.42897774 -4.3515625 4.6484375 C-5.95089084 7.75301605 -8.26292487 8.42475887 -11.4140625 9.7109375 C-12.4040625 9.7109375 -13.3940625 9.7109375 -14.4140625 9.7109375 C-14.7440625 10.7009375 -15.0740625 11.6909375 -15.4140625 12.7109375 C-16.3834375 13.2059375 -17.3528125 13.7009375 -18.3515625 14.2109375 C-26.2626843 18.45313325 -32.55468328 26.29165425 -35.4140625 34.7109375 C-36.69844327 37.40383993 -38.06101597 40.05150121 -39.4140625 42.7109375 C-40.0740625 42.7109375 -40.7340625 42.7109375 -41.4140625 42.7109375 C-43.97724502 50.60044966 -45.76333393 58.58607487 -47.4140625 66.7109375 C-47.7440625 66.7109375 -48.0740625 66.7109375 -48.4140625 66.7109375 C-48.36265635 51.70034216 -43.22120853 38.75298005 -34.4140625 26.7109375 C-33.79660156 25.86015625 -33.17914063 25.009375 -32.54296875 24.1328125 C-25.93434617 15.46315068 -18.42396888 8.60460417 -9.0390625 3.0859375 C-8.44399902 2.73063965 -7.84893555 2.3753418 -7.23583984 2.00927734 C-4.6558586 0.56586462 -2.98790858 -0.35777546 0 0 Z " fill="#EFE8C4" transform="translate(162.4140625,103.2890625)"/>
<path d="M0 0 C1.19625 0.268125 2.3925 0.53625 3.625 0.8125 C4.45513548 0.99316607 5.28527096 1.17383215 6.14056206 1.35997295 C8.11522919 1.80196204 10.08408632 2.27044637 12.04744148 2.76024342 C20.90932974 4.87067928 29.28048135 5.41481836 38.35888672 5.34057617 C39.83876528 5.33972738 41.31864511 5.34020995 42.79852295 5.34190369 C46.76875588 5.34275524 50.73871014 5.32526784 54.70887899 5.30418181 C58.87549474 5.28527281 63.04211872 5.28365348 67.20877075 5.28010559 C75.07779325 5.27082651 82.94668889 5.24626952 90.81565583 5.21605712 C99.78314378 5.18238334 108.75063818 5.16599466 117.71817374 5.15097082 C136.14552075 5.11971567 154.57275013 5.06703678 173 5 C173 5.33 173 5.66 173 6 C167.29948132 7.20213865 161.68506207 7.18044197 155.88696289 7.22119141 C154.77520691 7.2326973 153.66345093 7.24420319 152.51800537 7.25605774 C148.83625025 7.29276518 145.15447868 7.32244308 141.47265625 7.3515625 C138.8874847 7.37471803 136.30231524 7.3981086 133.71714783 7.42172241 C128.28077278 7.47021256 122.84438418 7.51517503 117.40795898 7.55761719 C111.88902064 7.60077443 106.37016255 7.64926449 100.85131836 7.703125 C48.45017075 8.21241857 48.45017075 8.21241857 29.24609375 7.7109375 C28.0769191 7.68705963 26.90774445 7.66318176 25.70314026 7.63858032 C20.03232657 7.43647852 15.19457815 6.74919035 9.88612366 4.69839478 C7.31062865 3.74473925 4.71561314 3.34815553 2 3 C2 2.34 2 1.68 2 1 C1.34 0.67 0.68 0.34 0 0 Z " fill="#2F0B0B" transform="translate(161,380)"/>
<path d="M0 0 C0.66 0.99 1.32 1.98 2 3 C4.31600986 6.20678289 6.81275607 8.76532865 9.8125 11.3125 C13.91013912 14.82586037 17.90508295 18.55105675 21 23 C21 23.99 21 24.98 21 26 C19.02 26.99 19.02 26.99 17 28 C16.50113281 27.41734375 16.00226563 26.8346875 15.48828125 26.234375 C10.36583605 20.38540705 4.9919995 15.08088744 -0.83276367 9.93652344 C-2.25659063 8.6621379 -3.63307367 7.33523561 -5 6 C-5 5.34 -5 4.68 -5 4 C-3.37373596 2.61767557 -1.7074998 1.28062485 0 0 Z " fill="#CCCEBB" transform="translate(352,339)"/>
<path d="M0 0 C4.77426362 1.90970545 7.60426501 3.49444078 10 8 C10.70748204 11.49773833 10.74716812 14.68146803 8.9375 17.875 C7 19 7 19 0 21 C0 14.07 0 7.14 0 0 Z " fill="#813618" transform="translate(340,194)"/>
<path d="M0 0 C0.33 6.93 0.66 13.86 1 21 C-4.39926135 19.92014773 -5.75222985 19.26849791 -9 15 C-9.75 11.6875 -9.75 11.6875 -9 8 C-3.58245614 0 -3.58245614 0 0 0 Z " fill="#9B4514" transform="translate(169,194)"/>
<path d="M0 0 C2.71089884 1.24554811 3.76879028 2.54381572 5.3125 5.0625 C3.74792435 9.28685427 0.969074 11.55308647 -2.6875 14.0625 C-6.16893326 13.98337652 -7.22104744 13.52895256 -9.6875 11.0625 C-9.6875 8.02188764 -9.38974803 5.93808773 -7.453125 3.5234375 C-5.0249518 1.28300965 -3.33966571 0.07766664 0 0 Z " fill="#180B0B" transform="translate(308.6875,276.9375)"/>
<path d="M0 0 C1.051875 0.66 2.10375 1.32 3.1875 2 C0.55499612 3.31625194 -0.61429056 2.74813658 -3.4375 2.0625 C-4.25476563 1.86785156 -5.07203125 1.67320312 -5.9140625 1.47265625 C-6.85378906 1.23869141 -6.85378906 1.23869141 -7.8125 1 C-8.163125 2.2375 -8.51375 3.475 -8.875 4.75 C-9.07222656 5.44609375 -9.26945312 6.1421875 -9.47265625 6.859375 C-9.84736159 9.21958796 -9.53903324 10.74419051 -8.8125 13 C-9.575625 12.21625 -10.33875 11.4325 -11.125 10.625 C-13.72141805 7.92742283 -13.72141805 7.92742283 -16.8125 6 C-16.8125 4.68 -16.8125 3.36 -16.8125 2 C-17.59625 2.20625 -18.38 2.4125 -19.1875 2.625 C-20.05375 2.74875 -20.92 2.8725 -21.8125 3 C-22.4725 2.34 -23.1325 1.68 -23.8125 1 C-16.94860923 -3.70666796 -7.35585007 -3.68448105 0 0 Z " fill="#F5A953" transform="translate(323.8125,270)"/>
<path d="M0 0 C0.33 0 0.66 0 1 0 C1.144375 1.051875 1.28875 2.10375 1.4375 3.1875 C1.623125 4.445625 1.80875 5.70375 2 7 C2.185625 8.299375 2.185625 8.299375 2.375 9.625 C3.92383818 15.51058508 8.3553172 20.24657874 12 25 C10.02 25.99 10.02 25.99 8 27 C8.27714844 27.60328125 8.55429688 28.2065625 8.83984375 28.828125 C9.20207031 29.62734375 9.56429687 30.4265625 9.9375 31.25 C10.29714844 32.03890625 10.65679687 32.8278125 11.02734375 33.640625 C11.90033279 35.75823698 12.51338508 37.76669362 13 40 C6.18437675 33.83254842 4.13075349 23.64939611 1.625 15.125 C1.35002686 14.20928223 1.07505371 13.29356445 0.79174805 12.35009766 C0.54336182 11.47401855 0.29497559 10.59793945 0.0390625 9.6953125 C-0.29810791 8.5199292 -0.29810791 8.5199292 -0.64208984 7.32080078 C-1.05637501 4.63444693 -0.66999392 2.6168561 0 0 Z " fill="#712810" transform="translate(180,219)"/>
<path d="M0 0 C0.33 0 0.66 0 1 0 C1.33 14.85 1.66 29.7 2 45 C-5.875 38.25 -5.875 38.25 -9 34 C-8.67 33.34 -8.34 32.68 -8 32 C-4.04 33.98 -4.04 33.98 0 36 C-0.33 33.69 -0.66 31.38 -1 29 C-1.99 29 -2.98 29 -4 29 C-4 28.01 -4 27.02 -4 26 C-2.68 26.33 -1.36 26.66 0 27 C0 18.09 0 9.18 0 0 Z " fill="#6D331F" transform="translate(207,234)"/>
<path d="M0 0 C3.31419098 1.44902969 5.56592592 3.2680214 8.125 5.8125 C8.80820312 6.47894531 9.49140625 7.14539063 10.1953125 7.83203125 C12 10 12 10 13.0546875 12.69921875 C13.36664063 13.45847656 13.67859375 14.21773437 14 15 C14.99 15.33 15.98 15.66 17 16 C17.39058594 16.97710937 17.78117187 17.95421875 18.18359375 18.9609375 C19.76178129 22.37676941 19.76178129 22.37676941 23.66015625 23.1015625 C25.12460893 23.29961483 26.59255338 23.47300228 28.0625 23.625 C34.86018905 24.55199039 40.77555892 25.987187 47 29 C43.25915695 30.24694768 42.23807624 29.52954706 38.625 28.125 C33.90945975 26.40091628 30.25281139 25.89504591 25.25 26 C21.14672602 25.79972115 19.60163049 25.62532484 16.71875 22.62890625 C15.3871888 20.55494684 14.11969098 18.43867243 12.9140625 16.2890625 C10.4187143 12.00113764 7.27066526 8.6530229 3.8828125 5.05859375 C2 3 2 3 0 0 Z " fill="#ECB962" transform="translate(312,140)"/>
<path d="M0 0 C4.72375962 2.25918938 6.75523402 5.28297559 9.0625 9.8125 C9.40611572 10.4710498 9.74973145 11.12959961 10.10375977 11.80810547 C13.36540522 18.29734836 15.380244 24.91699918 17 32 C17.1959375 32.82628906 17.391875 33.65257812 17.59375 34.50390625 C18.07730356 37.47497094 18.09556164 40.30389077 18.0625 43.3125 C18.05347656 44.38113281 18.04445313 45.44976562 18.03515625 46.55078125 C18.02355469 47.35902344 18.01195312 48.16726562 18 49 C17.67 49 17.34 49 17 49 C16.93006836 48.44650879 16.86013672 47.89301758 16.78808594 47.32275391 C14.9344437 32.75278255 14.9344437 32.75278255 10 19 C8 13.4 8 13.4 8 11 C7.34 11 6.68 11 6 11 C5.566875 10.05125 5.13375 9.1025 4.6875 8.125 C3.20697799 4.79958063 3.20697799 4.79958063 0 3 C0 2.01 0 1.02 0 0 Z " fill="#F0D28A" transform="translate(380,129)"/>
<path d="M0 0 C2.37924562 0.12191221 4.73123317 0.18558294 7.11181641 0.20532227 C7.84362625 0.21522186 8.5754361 0.22512146 9.329422 0.23532104 C11.75343568 0.26696199 14.17746898 0.29170366 16.6015625 0.31640625 C18.28022782 0.33697354 19.95888793 0.35796995 21.63754272 0.37937927 C26.05981231 0.43462318 30.48212881 0.48402221 34.90447998 0.53222656 C39.41552922 0.58242467 43.92651018 0.63811955 48.4375 0.69335938 C57.29160836 0.8009693 66.14577596 0.90240797 75 1 C75 1.33 75 1.66 75 2 C64.89916554 2.04632832 54.79835633 2.08187175 44.69743729 2.10362434 C40.00723774 2.11406417 35.31711085 2.12822705 30.62695312 2.15087891 C26.10119665 2.17260012 21.57551009 2.18456713 17.04970551 2.18975449 C15.32252654 2.19345153 13.59535143 2.20067088 11.86820221 2.21146011 C9.45013643 2.22596545 7.03236006 2.22797835 4.61425781 2.22705078 C3.89928131 2.23424133 3.18430481 2.24143188 2.44766235 2.24884033 C-1.20490414 2.23366647 -3.8945187 2.00865729 -7 0 C-2.25 -1.125 -2.25 -1.125 0 0 Z " fill="#FD6437" transform="translate(182,383)"/>
<path d="M0 0 C10.99100178 0.75800012 21.33369462 3.72746979 31 9 C31.825 9.309375 32.65 9.61875 33.5 9.9375 C37.22236004 11.51950302 40.79690351 13.52018337 44 16 C44 16.66 44 17.32 44 18 C44.639375 18.28875 45.27875 18.5775 45.9375 18.875 C48 20 48 20 49 22 C45.51120127 20.36410394 42.36291531 18.33324726 39.125 16.25 C26.6842954 8.51349732 14.25642995 4.74783797 0 2 C0 1.34 0 0.68 0 0 Z " fill="#ECC36C" transform="translate(263,118)"/>
<path d="M0 0 C2 3 2 3 1.6875 5.625 C1 8 1 8 0 9 C-5.25450902 9.45691383 -5.25450902 9.45691383 -7.9375 7.8125 C-9 6 -9 6 -8.8125 3.375 C-7.32903524 -0.96128159 -4.10629767 -0.34219147 0 0 Z " fill="#EAEBE9" transform="translate(286,192)"/>
<path d="M0 0 C2 2 2 2 2.3125 4.4375 C2 7 2 7 0.8125 8.875 C-1 10 -1 10 -3.5625 9.875 C-6 9 -6 9 -8 6 C-7.75 3.375 -7.75 3.375 -7 1 C-4.48718205 -0.25640898 -2.78302919 -0.20872719 0 0 Z " fill="#E9EDEB" transform="translate(230,192)"/>
<path d="M0 0 C1.32138707 3.96416122 0.14441646 6.02820171 -1 10 C-1.16847091 13.29219428 -1.16847091 13.29219428 -1 16 C1.96687001 17.64826111 4.65626525 18.44271087 8 19 C8 19.33 8 19.66 8 20 C6.22950311 20.05410687 4.45853151 20.09284119 2.6875 20.125 C1.20830078 20.15980469 1.20830078 20.15980469 -0.30078125 20.1953125 C-3 20 -3 20 -6 18 C-6.86672726 11.93290917 -4.9074733 7.21010726 -2 2 C-1.34 1.34 -0.68 0.68 0 0 Z " fill="#F7C171" transform="translate(299,272)"/>
<path d="M0 0 C4.03032851 -0.06397347 7.59517194 0.021885 10.98046875 2.37890625 C14.84502425 6.19227559 17.97402686 10.50688837 21 15 C20.67 15.66 20.34 16.32 20 17 C19.47792969 16.5153125 18.95585937 16.030625 18.41796875 15.53125 C13.22548913 10.80254701 7.84058061 6.59744402 2.08984375 2.56640625 C1.40019531 2.04949219 0.71054687 1.53257812 0 1 C0 0.67 0 0.34 0 0 Z " fill="#F4E3B1" transform="translate(297,146)"/>
<path d="M0 0 C0.66 3.96 1.32 7.92 2 12 C-3.94 10.515 -3.94 10.515 -10 9 C-9.01 8.34 -8.02 7.68 -7 7 C-6.30899447 5.00827818 -5.64097297 3.00838196 -5 1 C-3 0 -3 0 0 0 Z " fill="#C8C3AA" transform="translate(171,223)"/>
<path d="M0 0 C0.66 0 1.32 0 2 0 C1.125 3.875 1.125 3.875 0 5 C-1.77198999 5.2130607 -3.54488813 5.42050063 -5.32104492 5.59545898 C-13.93212466 6.45319006 -20.51690942 8.23383773 -27.9375 12.8125 C-28.618125 13.204375 -29.29875 13.59625 -30 14 C-30.66 13.67 -31.32 13.34 -32 13 C-25.53143631 5.38992508 -15.90022702 3.6797751 -6.53125 2.7890625 C-4.6794845 2.59016917 -2.83775186 2.3020962 -1 2 C-0.67 1.34 -0.34 0.68 0 0 Z " fill="#E8B352" transform="translate(178,160)"/>
<path d="M0 0 C0.33 0 0.66 0 1 0 C0.97026601 7.58216677 -0.47987936 14.29861707 -2.875 21.4375 C-3.13168457 22.20626465 -3.38836914 22.9750293 -3.65283203 23.76708984 C-5.05135627 27.77982594 -6.47763077 31.53346523 -9 35 C-9.66 35 -10.32 35 -11 35 C-12.2890625 33.46875 -12.2890625 33.46875 -13.625 31.5 C-14.07101562 30.8503125 -14.51703125 30.200625 -14.9765625 29.53125 C-15.31429688 29.0259375 -15.65203125 28.520625 -16 28 C-14 29 -12 30 -10 31 C-9.01 28.69 -8.02 26.38 -7 24 C-6.34 24 -5.68 24 -5 24 C-4.89042969 23.35675781 -4.78085937 22.71351563 -4.66796875 22.05078125 C-3.36694928 14.636028 -1.74606166 7.32181857 0 0 Z " fill="#EE7442" transform="translate(397,312)"/>
<path d="M0 0 C0.33 0.66 0.66 1.32 1 2 C-0.21484375 4.6015625 -0.21484375 4.6015625 -1.9375 7.625 C-2.50339844 8.62789062 -3.06929687 9.63078125 -3.65234375 10.6640625 C-4.09707031 11.43492187 -4.54179688 12.20578125 -5 13 C-5.66 13 -6.32 13 -7 13 C-9.56318252 20.88951216 -11.34927143 28.87513737 -13 37 C-13.33 37 -13.66 37 -14 37 C-13.96317255 26.24638431 -11.11372545 17.79997593 -7 8 C-6.34 8 -5.68 8 -5 8 C-3.63722914 6.21034453 -3.63722914 6.21034453 -2.375 4 C-1.92898437 3.2575 -1.48296875 2.515 -1.0234375 1.75 C-0.68570313 1.1725 -0.34796875 0.595 0 0 Z " fill="#EDD595" transform="translate(128,133)"/>
<path d="M0 0 C0.66 0 1.32 0 2 0 C3.7265625 2.5546875 3.7265625 2.5546875 5.625 5.875 C6.25664063 6.96554687 6.88828125 8.05609375 7.5390625 9.1796875 C9 12 9 12 9 14 C9.66 14 10.32 14 11 14 C12.296875 15.57421875 12.296875 15.57421875 13.75 17.6875 C16.48396839 21.47869263 19.29179505 24.17470099 23 27 C22.34 27.66 21.68 28.32 21 29 C12.05870303 20.89869962 4.14524393 11.50736987 0 0 Z " fill="#E96841" transform="translate(120,339)"/>
<path d="M0 0 C0.33 3.63 0.66 7.26 1 11 C-1.64 11.33 -4.28 11.66 -7 12 C-6.34 8.37 -5.68 4.74 -5 1 C-1 0 -1 0 0 0 Z " fill="#D7D1A9" transform="translate(344,222)"/>
<path d="M0 0 C0.99 0.33 1.98 0.66 3 1 C2.16855469 1.80824219 1.33710938 2.61648437 0.48046875 3.44921875 C-0.61745459 4.52837417 -1.71509599 5.60781647 -2.8125 6.6875 C-3.35970703 7.21794922 -3.90691406 7.74839844 -4.47070312 8.29492188 C-7.54303143 11.33000983 -9.9032364 14.18281499 -12 18 C-13.6875 19.8125 -13.6875 19.8125 -15 21 C-14.45743082 16.4424189 -13.40993792 12.92730624 -11 9 C-9.66945599 8.32778361 -8.33577529 7.66176023 -7 7 C-5.0500371 5.29004456 -5.0500371 5.29004456 -3.25 3.375 C-2.63640625 2.74335938 -2.0228125 2.11171875 -1.390625 1.4609375 C-0.93171875 0.97882813 -0.4728125 0.49671875 0 0 Z " fill="#C18232" transform="translate(198,158)"/>
<path d="M0 0 C0.33 0 0.66 0 1 0 C1.66 1.98 2.32 3.96 3 6 C6.10398978 6.08710289 9.20766548 6.14042309 12.3125 6.1875 C13.63411133 6.22520508 13.63411133 6.22520508 14.98242188 6.26367188 C15.82998047 6.27333984 16.67753906 6.28300781 17.55078125 6.29296875 C18.33106689 6.3086792 19.11135254 6.32438965 19.9152832 6.34057617 C22.49903853 5.91847304 23.36292167 4.98510058 25 3 C24.67 4.65 24.34 6.3 24 8 C16.08 8.33 8.16 8.66 0 9 C0 6.03 0 3.06 0 0 Z " fill="#733518" transform="translate(300,234)"/>
<path d="M0 0 C0.99 0.33 1.98 0.66 3 1 C2.50628906 1.69867188 2.01257813 2.39734375 1.50390625 3.1171875 C0.54291016 4.48230469 0.54291016 4.48230469 -0.4375 5.875 C-1.07558594 6.77992188 -1.71367187 7.68484375 -2.37109375 8.6171875 C-3.99518138 10.87738581 -3.99518138 10.87738581 -5 13 C-6.73647249 13.95014533 -8.47307474 14.90005618 -10.2109375 15.84765625 C-12.73041749 17.47046541 -14.30524563 19.5595537 -16 22 C-16.2890625 19.734375 -16.2890625 19.734375 -16 17 C-14.0234375 15.078125 -14.0234375 15.078125 -11.375 13.25 C-6.28458872 9.46111433 -3.12207719 5.48267214 0 0 Z " fill="#A4511B" transform="translate(317,217)"/>
<path d="M0 0 C1.08667969 0.41572266 1.08667969 0.41572266 2.1953125 0.83984375 C3.16210938 1.20207031 4.12890625 1.56429688 5.125 1.9375 C6.55199219 2.47697266 6.55199219 2.47697266 8.0078125 3.02734375 C13.19111042 4.71225391 18.06896393 5.13793104 23.5 5.125 C24.5828125 5.12757813 25.665625 5.13015625 26.78125 5.1328125 C29.93390353 5.00272728 32.90298066 4.5876874 36 4 C36.495 4.99 36.495 4.99 37 6 C30.52274004 8.0127934 25.21307555 8.07809113 18.5 7.375 C17.60152344 7.30410156 16.70304687 7.23320312 15.77734375 7.16015625 C9.67636748 6.56515565 5.32123695 5.04603517 0 2 C0 1.34 0 0.68 0 0 Z " fill="#E96839" transform="translate(290,337)"/>
<path d="M0 0 C0 0.99 0 1.98 0 3 C-4.43933144 6.49139809 -10.14831508 7.97353568 -15.4375 9.75 C-16.36626953 10.07871094 -17.29503906 10.40742188 -18.25195312 10.74609375 C-23.19326556 12.41312727 -26.81790823 13.5572229 -32 12 C-32 11.67 -32 11.34 -32 11 C-31.175 10.86464844 -30.35 10.72929687 -29.5 10.58984375 C-18.87387331 8.60930451 -9.639944 4.819972 0 0 Z " fill="#491512" transform="translate(361,373)"/>
<path d="M0 0 C0.66 0 1.32 0 2 0 C2 0.66 2 1.32 2 2 C3.32 2.33 4.64 2.66 6 3 C5 5 5 5 1.28125 6.40234375 C-0.3100438 6.9216502 -1.90394559 7.43301465 -3.5 7.9375 C-4.27859375 8.18951172 -5.0571875 8.44152344 -5.859375 8.70117188 C-7.43403124 9.21084952 -9.00955853 9.71784376 -10.5859375 10.22216797 C-14.40066585 11.45130677 -18.2004115 12.72495888 -22 14 C-18.85725968 10.32706633 -16.18807566 9.14770174 -11.5625 7.875 C-7.6011134 6.76415926 -3.79218354 5.60193174 0 4 C0 2.68 0 1.36 0 0 Z " fill="#F0C767" transform="translate(234,116)"/>
<path d="M0 0 C0.33 0.66 0.66 1.32 1 2 C0.33333333 3.66666667 -0.33333333 5.33333333 -1 7 C-1.3813074 9.32597511 -1.72460254 11.65912158 -2 14 C3.94 14.99 3.94 14.99 10 16 C10 16.33 10 16.66 10 17 C8.25034642 17.05429959 6.50020213 17.09292823 4.75 17.125 C3.77546875 17.14820313 2.8009375 17.17140625 1.796875 17.1953125 C-1.0196498 16.99862781 -2.60949036 16.44568916 -5 15 C-5.67081836 8.56014376 -3.75430238 5.16216577 0 0 Z " fill="#F19B43" transform="translate(295,276)"/>
<path d="M0 0 C2.10920728 7.09365234 -2.01145588 15.19843009 -5 21.6875 C-7.01028086 25.01702767 -7.63269204 25.57590934 -11 27 C-11 26.34 -11 25.68 -11 25 C-10.34 25 -9.68 25 -9 25 C-7.67460238 21.73728746 -6.43198869 18.46218975 -5.2734375 15.13671875 C-4.9640625 14.25048828 -4.6546875 13.36425781 -4.3359375 12.45117188 C-3.86027344 11.0831543 -3.86027344 11.0831543 -3.375 9.6875 C-3.05015625 8.75615234 -2.7253125 7.82480469 -2.390625 6.86523438 C-1.59273717 4.57717369 -0.7958949 2.28875452 0 0 Z " fill="#5E281A" transform="translate(397,322)"/>
<path d="M0 0 C0.33 2.64 0.66 5.28 1 8 C-1.475 7.01 -1.475 7.01 -4 6 C-4 4.68 -4 3.36 -4 2 C-4.78375 2.20625 -5.5675 2.4125 -6.375 2.625 C-7.24125 2.74875 -8.1075 2.8725 -9 3 C-9.66 2.34 -10.32 1.68 -11 1 C-7.2297564 -1.56376565 -4.32597804 -0.83191885 0 0 Z " fill="#F7C273" transform="translate(311,270)"/>
<path d="M0 0 C5.99291003 0.41330414 9.25036599 1.31903365 14 5 C10.31599416 6.23104155 7.08525024 5.90767252 3.25 5.5625 C2.07953125 5.46066406 0.9090625 5.35882813 -0.296875 5.25390625 C-1.18890625 5.17011719 -2.0809375 5.08632812 -3 5 C-2.360625 4.690625 -1.72125 4.38125 -1.0625 4.0625 C0.93610821 3.1654837 0.93610821 3.1654837 2 2 C1.34 1.34 0.68 0.68 0 0 Z " fill="#E5DABF" transform="translate(247,132)"/>
<path d="M0 0 C0.33 0 0.66 0 1 0 C1.144375 1.051875 1.28875 2.10375 1.4375 3.1875 C1.623125 4.445625 1.80875 5.70375 2 7 C2.185625 8.299375 2.185625 8.299375 2.375 9.625 C3.12137229 12.4612147 4.41015706 14.54899213 6 17 C7.33332095 19.6666419 6.67102033 21.16680303 6 24 C3.0961324 21.0961324 2.44043585 17.53405048 1.3125 13.6875 C1.07466797 12.92759766 0.83683594 12.16769531 0.59179688 11.38476562 C-0.63312911 7.25019141 -1.39692258 4.24156492 0 0 Z " fill="#96491C" transform="translate(180,219)"/>
<path d="M0 0 C0.66 0 1.32 0 2 0 C6.22323462 9.41002278 6.22323462 9.41002278 8 14 C6.29115995 12.37660195 4.62553283 10.70680947 3 9 C3 8.34 3 7.68 3 7 C2.01 7.33 1.02 7.66 0 8 C-0.66 7.67 -1.32 7.34 -2 7 C-1.125 1.125 -1.125 1.125 0 0 Z " fill="#E7A256" transform="translate(186,265)"/>
<path d="M0 0 C0.66 0.66 1.32 1.32 2 2 C1.09636719 2.61488281 0.19273437 3.22976562 -0.73828125 3.86328125 C-1.92980224 4.67952004 -3.12120215 5.49593558 -4.3125 6.3125 C-5.20485352 6.91868164 -5.20485352 6.91868164 -6.11523438 7.53710938 C-8.49187873 9.17022254 -10.74984486 10.74984486 -12.79296875 12.79296875 C-13.19128906 13.19128906 -13.58960938 13.58960938 -14 14 C-14.66 14 -15.32 14 -16 14 C-16 13.34 -16 12.68 -16 12 C-15.34 12 -14.68 12 -14 12 C-14 11.34 -14 10.68 -14 10 C-13.34 10 -12.68 10 -12 10 C-12 9.34 -12 8.68 -12 8 C-11.01 7.67 -10.02 7.34 -9 7 C-8.34 6.319375 -7.68 5.63875 -7 4.9375 C-5 3 -5 3 -2 3 C-2 2.34 -2 1.68 -2 1 C-1.34 0.67 -0.68 0.34 0 0 Z " fill="#ECC25F" transform="translate(210,129)"/>
<path d="M0 0 C1.32 0.66 2.64 1.32 4 2 C3.14277344 2.32613281 2.28554687 2.65226562 1.40234375 2.98828125 C-4.44693711 5.22380122 -10.27185473 7.46895906 -16 10 C-16.33 9.34 -16.66 8.68 -17 8 C-14.35261084 6.5393715 -13.10551666 6 -10 6 C-10 5.34 -10 4.68 -10 4 C-6.5980513 1.90649311 -3.94727588 1.82057837 0 2 C0 1.34 0 0.68 0 0 Z " fill="#7C5932" transform="translate(167,98)"/>
<path d="M0 0 C7.68347863 -0.40126484 14.7885252 0.09944372 22 3 C22.33 3.66 22.66 4.32 23 5 C15.23216563 4.20736384 7.6370361 2.58110513 0 1 C0 0.67 0 0.34 0 0 Z " fill="#F5F0CE" transform="translate(324,98)"/>
<path d="M0 0 C2.31 0 4.62 0 7 0 C7 1.32 7 2.64 7 4 C8.32 4.33 9.64 4.66 11 5 C8.36 5 5.72 5 3 5 C3 4.34 3 3.68 3 3 C1.35 4.32 -0.3 5.64 -2 7 C-1.42415568 4.61435923 -0.77772405 2.33317216 0 0 Z " fill="#FADD9F" transform="translate(300,272)"/>
<path d="M0 0 C4.455 1.98 4.455 1.98 9 4 C9 6.31 9 8.62 9 11 C1.33257403 5.03416856 1.33257403 5.03416856 0 0 Z " fill="#552118" transform="translate(198,266)"/>
<path d="M0 0 C0.89203125 0.38929687 1.7840625 0.77859375 2.703125 1.1796875 C3.71632813 1.64761719 3.71632813 1.64761719 4.75 2.125 C4.42 2.785 4.09 3.445 3.75 4.125 C7.215 6.105 7.215 6.105 10.75 8.125 C9.76 8.455 8.77 8.785 7.75 9.125 C4.95297499 7.49340208 2.48041625 5.98821921 0.375 3.5 C-2.38488312 1.16471428 -5.75840244 0.86911095 -9.25 0.125 C-5.60616039 -2.30990217 -3.89612974 -1.74300541 0 0 Z " fill="#F5E298" transform="translate(352.25,103.875)"/>
<path d="M0 0 C-2.28874173 1.33858524 -4.58069656 2.67101014 -6.875 4 C-7.52597656 4.3815625 -8.17695313 4.763125 -8.84765625 5.15625 C-13.7734375 8 -13.7734375 8 -16 8 C-14.69983239 4.09949718 -13.23996087 3.68856143 -9.6875 1.75 C-8.23923828 0.93789062 -8.23923828 0.93789062 -6.76171875 0.109375 C-3.86300189 -1.05503177 -2.83470023 -1.15811981 0 0 Z " fill="#F5F1D7" transform="translate(164,104)"/>
<path d="M0 0 C1.98 1.65 3.96 3.3 6 5 C5.01 6.32 4.02 7.64 3 9 C2.01 8.67 1.02 8.34 0 8 C-0.38063221 5.6739143 -0.71269945 3.33944736 -1 1 C-0.67 0.67 -0.34 0.34 0 0 Z " fill="#C8CCB4" transform="translate(368,358)"/>
<path d="M0 0 C0.33 0.99 0.66 1.98 1 3 C-3.62 3 -8.24 3 -13 3 C-13 2.34 -13 1.68 -13 1 C-8.59085217 -0.10228696 -4.51617599 -0.07654536 0 0 Z " fill="#EEE5BC" transform="translate(187,97)"/>
<path d="M0 0 C3.54353004 0.05924397 7.07244626 0.02103569 10.61523438 -0.0390625 C14.5595144 -0.08018445 18.14627904 0.0154166 22 1 C22 1.33 22 1.66 22 2 C17.91672643 2.0580772 13.83355917 2.09362249 9.75 2.125 C8.01169922 2.15013672 8.01169922 2.15013672 6.23828125 2.17578125 C5.12324219 2.18222656 4.00820312 2.18867188 2.859375 2.1953125 C1.83295898 2.20578613 0.80654297 2.21625977 -0.25097656 2.22705078 C-3.01984288 1.99836111 -4.64418792 1.4243299 -7 0 C-2.25 -1.125 -2.25 -1.125 0 0 Z " fill="#F05F34" transform="translate(182,383)"/>
<path d="M0 0 C0.33 6.93 0.66 13.86 1 21 C-0.32 20.67 -1.64 20.34 -3 20 C-2.34 19.67 -1.68 19.34 -1 19 C-1 14.05 -1 9.1 -1 4 C-2.32 3.67 -3.64 3.34 -5 3 C-2.25 0 -2.25 0 0 0 Z " fill="#A85324" transform="translate(169,194)"/>
<path d="M0 0 C0.66 0.33 1.32 0.66 2 1 C1.38511719 1.79664062 0.77023438 2.59328125 0.13671875 3.4140625 C-0.67994737 4.48417673 -1.49633901 5.55450047 -2.3125 6.625 C-3.11300781 7.66914063 -3.91351563 8.71328125 -4.73828125 9.7890625 C-6.83858371 12.77083904 -8.46782897 15.6976508 -10 19 C-11 16 -11 16 -9.9609375 13.73046875 C-6.91461327 8.84584541 -3.84122913 4.29313844 0 0 Z " fill="#F7F0CB" transform="translate(133,124)"/>
<path d="M0 0 C0.33 0 0.66 0 1 0 C1 1.98 1 3.96 1 6 C1.66 6 2.32 6 3 6 C3.33 5.01 3.66 4.02 4 3 C4.6875 4.6875 4.6875 4.6875 5 7 C3.5625 9.75 3.5625 9.75 2 12 C-0.125 10.5 -0.125 10.5 -2 8 C-1.74623625 5.10929988 -0.92790671 2.78372014 0 0 Z " fill="#31221F" transform="translate(350,204)"/>
<path d="M0 0 C2.64 0 5.28 0 8 0 C8.33 0.66 8.66 1.32 9 2 C7.02 2.99 7.02 2.99 5 4 C5.66 4.66 6.32 5.32 7 6 C4.03 5.505 4.03 5.505 1 5 C0.67 3.35 0.34 1.7 0 0 Z " fill="#2A1B1E" transform="translate(278,186)"/>
<path d="M0 0 C0 1.65 0 3.3 0 5 C-2.3125 5.6875 -2.3125 5.6875 -5 6 C-6.8125 4.5625 -6.8125 4.5625 -8 3 C-3.375 0 -3.375 0 0 0 Z " fill="#E6E7D0" transform="translate(165,225)"/>
<path d="M0 0 C1 2 1 2 1 6 C2.65 6.33 4.3 6.66 6 7 C5.67 7.99 5.34 8.98 5 10 C3.02 10.33 1.04 10.66 -1 11 C-1.02688151 9.35425434 -1.04634123 7.70838587 -1.0625 6.0625 C-1.07410156 5.14597656 -1.08570313 4.22945312 -1.09765625 3.28515625 C-1 1 -1 1 0 0 Z " fill="#E2E5CD" transform="translate(345,221)"/>
<path d="M0 0 C4.67692308 1.47692308 4.67692308 1.47692308 6.3125 4.125 C6.539375 4.74375 6.76625 5.3625 7 6 C5.35 7.32 3.7 8.64 2 10 C1.34 6.7 0.68 3.4 0 0 Z " fill="#984017" transform="translate(340,194)"/>
<path d="M0 0 C0.99 0.33 1.98 0.66 3 1 C2.48050781 1.36351562 1.96101562 1.72703125 1.42578125 2.1015625 C-3.09730013 5.36219418 -6.62064189 8.56459248 -10 13 C-10 9.28115772 -9.1259934 8.63852271 -6.6875 5.9375 C-5.76517578 4.89916016 -5.76517578 4.89916016 -4.82421875 3.83984375 C-3 2 -3 2 0 0 Z " fill="#2B0B07" transform="translate(205,165)"/>
<path d="M0 0 C9 3 9 3 11 6 C13.56282742 6.72965366 13.56282742 6.72965366 16 7 C15.01 8.485 15.01 8.485 14 10 C10.67312232 8.45315734 7.75296022 6.54045021 4.75 4.4375 C3.85796875 3.81746094 2.9659375 3.19742188 2.046875 2.55859375 C1.37140625 2.04425781 0.6959375 1.52992188 0 1 C0 0.67 0 0.34 0 0 Z " fill="#B97632" transform="translate(242,162)"/>
<path d="M0 0 C1.24703266 3.74109799 0.45460854 4.44429023 -1 8 C-1.165 9.155 -1.33 10.31 -1.5 11.5 C-1.95320207 14.6724145 -2.68257806 17.10167172 -4 20 C-4.33 20 -4.66 20 -5 20 C-4.68676801 12.63904818 -3.06085395 6.69116911 0 0 Z " fill="#EFBD58" transform="translate(121,146)"/>
<path d="M0 0 C0.93423645 3.01031744 1.04449911 3.86650268 0 7 C-1.77734375 8.7890625 -1.77734375 8.7890625 -3.9375 10.625 C-4.64777344 11.23601562 -5.35804688 11.84703125 -6.08984375 12.4765625 C-8 14 -8 14 -10 15 C-8.32792152 11.33428949 -6.12684747 8.73953221 -3.4375 5.78125 C-1.95574686 3.94516459 -0.97653999 2.14087614 0 0 Z " fill="#E79C4C" transform="translate(371,221)"/>
<path d="M0 0 C0.66 0.33 1.32 0.66 2 1 C1.44449305 4.59905908 0.25112752 5.99909799 -2.5625 8.25 C-3.20316406 8.77078125 -3.84382812 9.2915625 -4.50390625 9.828125 C-4.99761719 10.21484375 -5.49132812 10.6015625 -6 11 C-4.54955729 6.89041233 -2.48889248 3.56741255 0 0 Z " fill="#EADAA7" transform="translate(194,157)"/>
<path d="M0 0 C3.63 0.33 7.26 0.66 11 1 C8 3 8 3 6 3 C6.66 4.32 7.32 5.64 8 7 C4.2047869 5.50902342 2.38957269 3.24299151 0 0 Z " fill="#E4C9A2" transform="translate(260,129)"/>
<path d="M0 0 C1.65 0 3.3 0 5 0 C4.01 1.98 3.02 3.96 2 6 C0.68 5.67 -0.64 5.34 -2 5 C-1.34 3.35 -0.68 1.7 0 0 Z " fill="#2E1922" transform="translate(266,266)"/>
<path d="M0 0 C0.66 0.33 1.32 0.66 2 1 C0.73461631 1.84158536 -0.53753779 2.67299748 -1.8125 3.5 C-2.87404297 4.19609375 -2.87404297 4.19609375 -3.95703125 4.90625 C-6 6 -6 6 -9 6 C-9.33 6.99 -9.66 7.98 -10 9 C-10.66 8.67 -11.32 8.34 -12 8 C-11.67 6.68 -11.34 5.36 -11 4 C-10.113125 3.896875 -9.22625 3.79375 -8.3125 3.6875 C-4.93533005 2.98657793 -2.90570799 1.77571044 0 0 Z " fill="#F1D180" transform="translate(157,107)"/>
<path d="M0 0 C0.33 0.99 0.66 1.98 1 3 C-1.31 5.31 -3.62 7.62 -6 10 C-6.66 9.34 -7.32 8.68 -8 8 C-5.36 5.36 -2.72 2.72 0 0 Z " fill="#312527" transform="translate(382,355)"/>
<path d="M0 0 C1.20628008 2.33214148 2.1654738 4.49642139 3 7 C1.35 7.33 -0.3 7.66 -2 8 C-2.66 7.01 -3.32 6.02 -4 5 C-2 2 -2 2 0 0 Z " fill="#341813" transform="translate(159,205)"/>
<path d="M0 0 C4.24822374 0.47202486 6.19989709 2.96655518 9 6 C5.28400809 6.20086443 4.22791555 6.1519437 1 4 C0.3125 1.875 0.3125 1.875 0 0 Z " fill="#F0ECD1" transform="translate(295,141)"/>
<path d="M0 0 C0.66 0.66 1.32 1.32 2 2 C-2.42243499 4.56786548 -5.51143471 3.71809676 -10.20703125 2.5078125 C-10.79871094 2.34023437 -11.39039063 2.17265625 -12 2 C-12 1.67 -12 1.34 -12 1 C-7.94392005 0.01670789 -4.16937798 -0.23600253 0 0 Z " fill="#CB8E3A" transform="translate(262,137)"/>
<path d="M0 0 C5.57142857 5.14285714 5.57142857 5.14285714 6 9 C3.525 8.01 3.525 8.01 1 7 C0.67 4.69 0.34 2.38 0 0 Z " fill="#D2C6A7" transform="translate(219,275)"/>
<path d="M0 0 C1.32 0.66 2.64 1.32 4 2 C3.34 4.97 2.68 7.94 2 11 C1.67 11 1.34 11 1 11 C0.4254048 7.26513121 0 3.78706732 0 0 Z " fill="#F49653" transform="translate(335,337)"/>
<path d="M0 0 C0.12375 0.639375 0.2475 1.27875 0.375 1.9375 C0.58125 2.618125 0.7875 3.29875 1 4 C1.66 4.33 2.32 4.66 3 5 C-1.95 5 -6.9 5 -12 5 C-12 4.67 -12 4.34 -12 4 C-6.555 3.505 -6.555 3.505 -1 3 C-0.67 2.01 -0.34 1.02 0 0 Z " fill="#ADAD98" transform="translate(261,297)"/>
<path d="M0 0 C-1.39356046 2.78712092 -3.16505673 3.26463329 -5.9375 4.625 C-6.83339844 5.07101563 -7.72929687 5.51703125 -8.65234375 5.9765625 C-11 7 -11 7 -13 7 C-13 6.34 -13 5.68 -13 5 C-12.01 5 -11.02 5 -10 5 C-10 4.34 -10 3.68 -10 3 C-6.58168085 0.4606772 -4.24223102 -0.3636198 0 0 Z " fill="#C48130" transform="translate(214,160)"/>
<path d="M0 0 C7.48291572 6.15034169 7.48291572 6.15034169 10 10 C7 10 7 10 5.17578125 8.57421875 C4.56089844 7.95160156 3.94601563 7.32898438 3.3125 6.6875 C2.37857422 5.76517578 2.37857422 5.76517578 1.42578125 4.82421875 C0 3 0 3 0 0 Z " fill="#E85734" transform="translate(133,357)"/>
<path d="M0 0 C-0.75 2.9375 -0.75 2.9375 -2 6 C-4.125 6.875 -4.125 6.875 -6 7 C-5.37162381 3.35541809 -4.14650034 0 0 0 Z " fill="#47332F" transform="translate(350,326)"/>
<path d="M0 0 C4.3890815 0.51035831 7.33708062 1.52214277 11 4 C8.36749612 5.31625194 7.19820944 4.74813658 4.375 4.0625 C3.14910156 3.77052734 3.14910156 3.77052734 1.8984375 3.47265625 C0.95871094 3.23869141 0.95871094 3.23869141 0 3 C0 2.01 0 1.02 0 0 Z " fill="#F49E40" transform="translate(316,268)"/>
<path d="M0 0 C4.0784817 4.62227926 5.63415296 9.08132948 7 15 C4.47138427 12.73946101 3.16143472 10.60099936 1.8125 7.5 C1.46832031 6.7265625 1.12414062 5.953125 0.76953125 5.15625 C0 3 0 3 0 0 Z " fill="#75311B" transform="translate(186,244)"/>
<path d="M0 0 C-1.485 2.475 -1.485 2.475 -3 5 C-4.32 4.34 -5.64 3.68 -7 3 C-7 2.01 -7 1.02 -7 0 C-3.86650268 -1.04449911 -3.01031744 -0.93423645 0 0 Z " fill="#E9DDC3" transform="translate(235,133)"/>
<path d="M0 0 C2 3 2 3 2 5 C-0.31 5.33 -2.62 5.66 -5 6 C-5 5.34 -5 4.68 -5 4 C-3.37373596 2.61767557 -1.7074998 1.28062485 0 0 Z " fill="#E4DEBE" transform="translate(352,339)"/>
<path d="M0 0 C3.7952131 1.49097658 5.61042731 3.75700849 8 7 C4.0521912 7 2.81491174 5.66275435 0 3 C0 2.01 0 1.02 0 0 Z " fill="#E2DAB8" transform="translate(305,148)"/>
<path d="M0 0 C1.33897583 0.95043374 2.67105427 1.91059147 4 2.875 C5.11375 3.67550781 5.11375 3.67550781 6.25 4.4921875 C6.8275 4.98976563 7.405 5.48734375 8 6 C8 6.66 8 7.32 8 8 C5.62051228 7.82374165 4.29774151 7.30280227 2.62109375 5.59765625 C1.37884514 4.09350908 0.18623944 2.54870149 -1 1 C-0.67 0.67 -0.34 0.34 0 0 Z " fill="#755336" transform="translate(371,114)"/>
<path d="M0 0 C-2.79526798 1.86351199 -3.84045627 2.34308907 -7 2.75 C-7.680625 2.84796875 -8.36125 2.9459375 -9.0625 3.046875 C-11 3 -11 3 -14 1 C-9.32798795 -0.20568053 -4.78503708 -0.09382426 0 0 Z " fill="#BD8540" transform="translate(247,137)"/>
<path d="M0 0 C0.66 0 1.32 0 2 0 C2 0.66 2 1.32 2 2 C3.32 2.33 4.64 2.66 6 3 C5 5 5 5 3.0625 5.75 C2.381875 5.8325 1.70125 5.915 1 6 C0.34 5.34 -0.32 4.68 -1 4 C-0.625 1.875 -0.625 1.875 0 0 Z " fill="#F7C74D" transform="translate(234,116)"/>
<path d="M0 0 C4.51478398 0.53115106 7.34666857 2.36620292 11 5 C10.34 5.66 9.68 6.32 9 7 C7.4972763 6.02501855 5.99788037 5.04490611 4.5 4.0625 C3.6646875 3.51722656 2.829375 2.97195312 1.96875 2.41015625 C1.3190625 1.94480469 0.669375 1.47945313 0 1 C0 0.67 0 0.34 0 0 Z " fill="#F3EECE" transform="translate(355,107)"/>
<path d="M0 0 C0.33 1.32 0.66 2.64 1 4 C1.66 4 2.32 4 3 4 C2.67 6.64 2.34 9.28 2 12 C0 10 0 10 -0.1953125 7.6171875 C-0.17210937 6.71226562 -0.14890625 5.80734375 -0.125 4.875 C-0.10695313 3.96492188 -0.08890625 3.05484375 -0.0703125 2.1171875 C-0.04710937 1.41851562 -0.02390625 0.71984375 0 0 Z " fill="#C6672C" transform="translate(289,287)"/>
<path d="M0 0 C2.31 0 4.62 0 7 0 C7.33 0.66 7.66 1.32 8 2 C5.69 2.33 3.38 2.66 1 3 C0.67 2.01 0.34 1.02 0 0 Z " fill="#DBDADC" transform="translate(335,174)"/>
<path d="M0 0 C0 0.33 0 0.66 0 1 C-1.98 1 -3.96 1 -6 1 C-6.12375 1.639375 -6.2475 2.27875 -6.375 2.9375 C-6.58125 3.618125 -6.7875 4.29875 -7 5 C-7.99 5.495 -7.99 5.495 -9 6 C-9.33 5.01 -9.66 4.02 -10 3 C-7.29536552 -0.8183075 -4.37912428 -0.24787496 0 0 Z " fill="#C8C4B8" transform="translate(270,237)"/>
<path d="M0 0 C3.875 1.75 3.875 1.75 5 4 C4.72057545 5.67654729 4.39171753 7.34608154 4 9 C1.3144406 6.3144406 0.93950026 3.62378672 0 0 Z " fill="#8C3C1B" transform="translate(182,234)"/>
<path d="M0 0 C2.97 0.33 5.94 0.66 9 1 C8.67 1.99 8.34 2.98 8 4 C3.91927658 3.44855089 3.08669204 3.08669204 0 0 Z " fill="#F0E6C0" transform="translate(297,146)"/>
<path d="M0 0 C0.99 0.66 1.98 1.32 3 2 C3 2.66 3 3.32 3 4 C-0.465 5.485 -0.465 5.485 -4 7 C-4 6.34 -4 5.68 -4 5 C-3.34 5 -2.68 5 -2 5 C-2 4.34 -2 3.68 -2 3 C-1.34 3 -0.68 3 0 3 C0 2.01 0 1.02 0 0 Z " fill="#E56139" transform="translate(360,369)"/>
<path d="M0 0 C-0.33 0.99 -0.66 1.98 -1 3 C-4.3 2.67 -7.6 2.34 -11 2 C-11 1.67 -11 1.34 -11 1 C-7.26562152 0.12132271 -3.83225427 -0.08912219 0 0 Z " fill="#D8D2D2" transform="translate(174,174)"/>
<path d="M0 0 C0.33 0.99 0.66 1.98 1 3 C-0.8125 5.6875 -0.8125 5.6875 -3 8 C-3.66 8 -4.32 8 -5 8 C-5 7.34 -5 6.68 -5 6 C-4.34 6 -3.68 6 -3 6 C-2.690625 5.195625 -2.38125 4.39125 -2.0625 3.5625 C-1 1 -1 1 0 0 Z " fill="#4C1F1A" transform="translate(391,341)"/>
<path d="M0 0 C0 0.99 0 1.98 0 3 C-2.5 5.1875 -2.5 5.1875 -5 7 C-5.66 6.67 -6.32 6.34 -7 6 C-4.69 4.02 -2.38 2.04 0 0 Z " fill="#2C0E08" transform="translate(150,172)"/>
<path d="M0 0 C0.33 0.99 0.66 1.98 1 3 C-0.65 4.32 -2.3 5.64 -4 7 C-4.66 6.34 -5.32 5.68 -6 5 C-4.02 3.35 -2.04 1.7 0 0 Z " fill="#BC8330" transform="translate(209,149)"/>
</svg>
